<svg id="kity_svg_6" xmlns="http://www.w3.org/2000/svg" xmlns:xlink="http://www.w3.org/1999/xlink" version="1.1" width="1130" height="1011" style="background: rgb(251, 251, 251); visibility: visible;" viewBox="0 0 1130 1011"><defs id="kity_defs_7"><linearGradient id="kity_linearGradient_17" x1="0" y1="0" x2="0" y2="1"><stop id="kity_stop_18" offset="0" stop-color="rgb(255, 255, 255)"></stop><stop id="kity_stop_19" offset="1" stop-color="rgb(204, 204, 204)"></stop></linearGradient><marker id="kity_marker_2" orient="auto" refX="6" refY="0" viewBox="-7 -7 14 14" markerWidth="7" markerHeight="7" markerUnits="userSpaceOnUse"><path id="kity_path_3" fill="rgb(115, 161, 191)" stroke="none" d="M6,0A6,6,0,1,1,-6,0A6,6,0,1,1,6,0"></path></marker></defs><g id="kity_g_8"><g id="minder1" text-rendering="geometricPrecision"><g id="minder_connect_group1"><path id="kity_path_31" fill="none" stroke="rgb(115, 161, 191)" stroke-width="1" d="M514.5000048838556,399.50000143423676A194,278,0,0,1,708.5000048838556,121.50000143423676"></path><path id="kity_path_79" fill="none" stroke="rgb(115, 161, 191)" stroke-width="1" d="M514.5000048838556,399.50000143423676A194,278,0,0,0,708.5000048838556,677.5000014342368"></path><path id="kity_path_142" fill="none" stroke="rgb(115, 161, 191)" stroke-width="1" d="M811.5000048838556,121.50000143423676C826.5000048838556,121.50000143423676,826.5000048838556,44.500001434236765,841.5000048838556,44.500001434236765L971.5000048838556,44.500001434236765"></path><path id="kity_path_143" fill="none" stroke="rgb(115, 161, 191)" stroke-width="1" d="M940.5000048838556,122.50000143423676C955.5000048838556,122.50000143423676,955.5000048838556,96.50000143423676,970.5000048838556,96.50000143423676L1034.5000048838556,96.50000143423676"></path><path id="kity_path_144" fill="none" stroke="rgb(115, 161, 191)" stroke-width="1" d="M940.5000048838556,122.50000143423676C955.5000048838556,122.50000143423676,955.5000048838556,148.50000143423676,970.5000048838556,148.50000143423676L1029.5000048838556,148.50000143423676"></path><path id="kity_path_145" fill="none" stroke="rgb(115, 161, 191)" stroke-width="1" d="M811.5000048838556,121.50000143423676C826.5000048838556,121.50000143423676,826.5000048838556,122.50000143423676,841.5000048838556,122.50000143423676L940.5000048838556,122.50000143423676"></path><path id="kity_path_188" fill="none" stroke="rgb(115, 161, 191)" stroke-width="1" d="M922.5000048838556,392.50000143423676C937.5000048838556,392.50000143423676,937.5000048838556,314.50000143423676,952.5000048838556,314.50000143423676L1009.5000048838556,314.50000143423676"></path><path id="kity_path_189" fill="none" stroke="rgb(115, 161, 191)" stroke-width="1" d="M922.5000048838556,392.50000143423676C937.5000048838556,392.50000143423676,937.5000048838556,366.50000143423676,952.5000048838556,366.50000143423676L1021.5000048838556,366.50000143423676"></path><path id="kity_path_190" fill="none" stroke="rgb(115, 161, 191)" stroke-width="1" d="M922.5000048838556,392.50000143423676C937.5000048838556,392.50000143423676,937.5000048838556,418.50000143423676,952.5000048838556,418.50000143423676L1034.5000048838556,418.50000143423676"></path><path id="kity_path_191" fill="none" stroke="rgb(115, 161, 191)" stroke-width="1" d="M922.5000048838556,392.50000143423676C937.5000048838556,392.50000143423676,937.5000048838556,470.50000143423676,952.5000048838556,470.50000143423676L1002.5000048838556,470.50000143423676"></path><path id="kity_path_192" fill="none" stroke="rgb(115, 161, 191)" stroke-width="1" d="M765.5000048838556,677.5000014342368C780.5000048838556,677.5000014342368,780.5000048838556,392.50000143423676,795.5000048838556,392.50000143423676L922.5000048838556,392.50000143423676"></path><path id="kity_path_193" fill="none" stroke="rgb(115, 161, 191)" stroke-width="1" d="M901.5000048838556,574.5000014342368C916.5000048838556,574.5000014342368,916.5000048838556,522.5000014342368,931.5000048838556,522.5000014342368L996.5000048838556,522.5000014342368"></path><path id="kity_path_194" fill="none" stroke="rgb(115, 161, 191)" stroke-width="1" d="M901.5000048838556,574.5000014342368C916.5000048838556,574.5000014342368,916.5000048838556,574.5000014342368,931.5000048838556,574.5000014342368L996.5000048838556,574.5000014342368"></path><path id="kity_path_195" fill="none" stroke="rgb(115, 161, 191)" stroke-width="1" d="M901.5000048838556,574.5000014342368C916.5000048838556,574.5000014342368,916.5000048838556,626.5000014342368,931.5000048838556,626.5000014342368L1009.5000048838556,626.5000014342368"></path><path id="kity_path_196" fill="none" stroke="rgb(115, 161, 191)" stroke-width="1" d="M765.5000048838556,677.5000014342368C780.5000048838556,677.5000014342368,780.5000048838556,574.5000014342368,795.5000048838556,574.5000014342368L901.5000048838556,574.5000014342368"></path><path id="kity_path_197" fill="none" stroke="rgb(115, 161, 191)" stroke-width="1" d="M765.5000048838556,677.5000014342368C780.5000048838556,677.5000014342368,780.5000048838556,990.5000014342368,795.5000048838556,990.5000014342368L886.5000048838556,990.5000014342368"></path><path id="kity_path_199" fill="none" stroke="rgb(115, 161, 191)" stroke-width="1" d="M811.5000048838556,121.50000143423676C826.5000048838556,121.50000143423676,826.5000048838556,226.50000143423676,841.5000048838556,226.50000143423676L957.5000048838556,226.50000143423676"></path><path id="kity_path_207" fill="none" stroke="rgb(115, 161, 191)" stroke-width="1" d="M957.5000048838556,226.50000143423676C972.5000048838556,226.50000143423676,972.5000048838556,200.50000143423676,987.5000048838556,200.50000143423676L1051.5000048838556,200.50000143423676"></path><path id="kity_path_215" fill="none" stroke="rgb(115, 161, 191)" stroke-width="1" d="M957.5000048838556,226.50000143423676C972.5000048838556,226.50000143423676,972.5000048838556,252.50000143423676,987.5000048838556,252.50000143423676L1046.5000048838556,252.50000143423676"></path><path id="kity_path_231" fill="none" stroke="rgb(115, 161, 191)" stroke-width="1" d="M765.5000048838556,677.5000014342368C780.5000048838556,677.5000014342368,780.5000048838556,808.5000014342368,795.5000048838556,808.5000014342368L867.5000048838556,808.5000014342368"></path><path id="kity_path_239" fill="none" stroke="rgb(115, 161, 191)" stroke-width="1" d="M867.5000048838556,808.5000014342368C882.5000048838556,808.5000014342368,882.5000048838556,678.5000014342368,897.5000048838556,678.5000014342368L949.5000048838556,678.5000014342368"></path><path id="kity_path_247" fill="none" stroke="rgb(115, 161, 191)" stroke-width="1" d="M867.5000048838556,808.5000014342368C882.5000048838556,808.5000014342368,882.5000048838556,756.5000014342368,897.5000048838556,756.5000014342368L977.5000048838556,756.5000014342368"></path><path id="kity_path_255" fill="none" stroke="rgb(115, 161, 191)" stroke-width="1" d="M977.5000048838556,756.5000014342368C992.5000048838556,756.5000014342368,992.5000048838556,730.5000014342368,1007.5000048838556,730.5000014342368L1064.5000048838556,730.5000014342368"></path><path id="kity_path_263" fill="none" stroke="rgb(115, 161, 191)" stroke-width="1" d="M977.5000048838556,756.5000014342368C992.5000048838556,756.5000014342368,992.5000048838556,782.5000014342368,1007.5000048838556,782.5000014342368L1080.5000048838556,782.5000014342368"></path><path id="kity_path_271" fill="none" stroke="rgb(115, 161, 191)" stroke-width="1" d="M867.5000048838556,808.5000014342368C882.5000048838556,808.5000014342368,882.5000048838556,860.5000014342368,897.5000048838556,860.5000014342368L987.5000048838556,860.5000014342368"></path><path id="kity_path_279" fill="none" stroke="rgb(115, 161, 191)" stroke-width="1" d="M987.5000048838556,860.5000014342368C1002.5000048838556,860.5000014342368,1002.5000048838556,834.5000014342368,1017.5000048838556,834.5000014342368L1100.5000048838556,834.5000014342368"></path><path id="kity_path_287" fill="none" stroke="rgb(115, 161, 191)" stroke-width="1" d="M987.5000048838556,860.5000014342368C1002.5000048838556,860.5000014342368,1002.5000048838556,886.5000014342368,1017.5000048838556,886.5000014342368L1110.5000048838556,886.5000014342368"></path><path id="kity_path_295" fill="none" stroke="rgb(115, 161, 191)" stroke-width="1" d="M514.5000048838556,399.50000143423676A194,0,0,0,1,320.5000048838556,399.50000143423676"></path><path id="kity_path_303" fill="none" stroke="rgb(115, 161, 191)" stroke-width="1" d="M242.50000488385558,399.50000143423676C227.50000488385558,399.50000143423676,227.50000488385558,361.50000143423676,212.50000488385558,361.50000143423676L119.50000488385558,361.50000143423676"></path><path id="kity_path_311" fill="none" stroke="rgb(115, 161, 191)" stroke-width="1" d="M242.50000488385558,399.50000143423676C227.50000488385558,399.50000143423676,227.50000488385558,413.50000143423676,212.50000488385558,413.50000143423676L138.50000488385558,413.50000143423676"></path><path id="kity_path_319" fill="none" stroke="rgb(115, 161, 191)" stroke-width="1" d="M242.50000488385558,399.50000143423676C227.50000488385558,399.50000143423676,227.50000488385558,470.50000143423676,212.50000488385558,470.50000143423676L112.50000488385558,470.50000143423676"></path><path id="kity_path_327" fill="none" stroke="rgb(115, 161, 191)" stroke-width="1" d="M112.50000488385558,470.50000143423676C97.50000488385558,470.50000143423676,97.50000488385558,468.50000143423676,82.50000488385558,468.50000143423676L20.50000488385558,468.50000143423676"></path><path id="kity_path_341" fill="none" stroke="rgb(115, 161, 191)" stroke-width="1" d="M867.5000048838556,808.5000014342368C882.5000048838556,808.5000014342368,882.5000048838556,938.5000014342368,897.5000048838556,938.5000014342368L981.5000048838556,938.5000014342368"></path><path id="kity_path_349" fill="none" stroke="rgb(115, 161, 191)" stroke-width="1" d="M981.5000048838556,938.5000014342368C996.5000048838556,938.5000014342368,996.5000048838556,938.5000014342368,1011.5000048838556,938.5000014342368L1076.5000048838556,938.5000014342368"></path></g><g id="minder_node1"><path id="node_outline1" fill="rgb(115, 161, 191)" stroke="rgb(115, 161, 191)" d="M443.5000048838556,379.50000143423676h142a5,5,0,0,1,5,5v30a5,5,0,0,1,-5,5h-142a5,5,0,0,1,-5,-5v-30a5,5,0,0,1,5,-5z" stroke-width="3"></path><g id="node_text1" fill="white"><text id="kity_text_22" text-rendering="inherit" font-size="16" dy=".8em" y="389.10000137396986" x="462.5000048838556">LostInCrowds</text></g></g><g id="kity_g_14" display="none"><path id="kity_path_15" fill="none" stroke="none" d="M462.5000048838556,399.50000143423676h0v0h0z"></path><path id="kity_path_16" fill="none" stroke="none"></path></g><g id="minder_node2" opacity="1"><g id="node_expander1" style="cursor: pointer;"><path id="kity_path_36" fill="white" stroke="gray" d="M709.5000066794455,121.49999936297536A6,6,0,1,1,697.5000066794455,121.49999936297536A6,6,0,1,1,709.5000066794455,121.49999936297536"></path><path id="kity_path_37" fill="none" stroke="gray" d="M699.0000066794455,121.49999936297536L708.0000066794455,121.49999936297536"></path></g><path id="node_outline2" fill="rgb(238, 243, 246)" stroke="rgb(115, 161, 191)" d="M713.5000068806112,108.49999936297536h95a3,3,0,0,1,3,3v20a3,3,0,0,1,-3,3h-95a3,3,0,0,1,-3,-3v-20a3,3,0,0,1,3,-3z" stroke-width="1"></path><g id="node_text2" fill="black"><text id="kity_text_33" text-rendering="inherit" font-size="14" dy=".8em" y="112.39999938971467" x="730.5000068806112">NetWork</text></g></g><g id="minder_node8" opacity="1"><g id="node_expander7" style="cursor: pointer;"><path id="kity_path_84" fill="white" stroke="gray" d="M709.5000066794455,677.5000035054982A6,6,0,1,1,697.5000066794455,677.5000035054982A6,6,0,1,1,709.5000066794455,677.5000035054982"></path><path id="kity_path_85" fill="none" stroke="gray" d="M699.0000066794455,677.5000035054982L708.0000066794455,677.5000035054982"></path></g><path id="node_outline8" fill="rgb(238, 243, 246)" stroke="rgb(115, 161, 191)" d="M713.5000068806112,664.5000035054982h49a3,3,0,0,1,3,3v20a3,3,0,0,1,-3,3h-49a3,3,0,0,1,-3,-3v-20a3,3,0,0,1,3,-3z" stroke-width="1"></path><g id="node_text8" fill="black"><text id="kity_text_81" text-rendering="inherit" font-size="14" dy=".8em" y="668.4000035322375" x="730.5000068806112">UI</text></g></g><g id="kity_g_12" display="none"><path id="kity_path_13" fill="none" stroke="rgb(66, 94, 112)" d="M443.5000048838556,379.50000143423676h142a5,5,0,0,1,5,5v30a5,5,0,0,1,-5,5h-142a5,5,0,0,1,-5,-5v-30a5,5,0,0,1,5,-5z" stroke-width="5"></path></g><g id="minder_node3"><g id="node_expander2" style="cursor: pointer;" display="none"><path id="kity_path_44" fill="white" stroke="gray" d="M851.500007737428,30.499998684972525A6,6,0,1,1,839.500007737428,30.499998684972525A6,6,0,1,1,851.500007737428,30.499998684972525"></path><path id="kity_path_45" fill="none" stroke="gray"></path></g><path id="node_outline3" fill="none" stroke="none" d="M856.5000078566372,19.499998684972525h110a5,5,0,0,1,5,5v12a5,5,0,0,1,-5,5h-110a5,5,0,0,1,-5,-5v-12a5,5,0,0,1,5,-5z" stroke-width="3"></path><g id="node_text3" fill="black"><text id="kity_text_41" text-rendering="inherit" font-size="12" dy=".8em" y="22.699998798718056" x="861.5000078566372">ConnectManager</text></g></g><g id="minder_node5" opacity="1"><g id="node_expander4" style="cursor: pointer;" display="none"><path id="kity_path_60" fill="white" stroke="gray" d="M980.5000086985528,82.49999907240272A6,6,0,1,1,968.5000086985528,82.49999907240272A6,6,0,1,1,980.5000086985528,82.49999907240272"></path><path id="kity_path_61" fill="none" stroke="gray" d="M970.0000086985528,82.49999907240272L979.0000086985528,82.49999907240272"></path></g><path id="node_outline5" fill="none" stroke="none" d="M985.5000088177621,71.49999907240272h44a5,5,0,0,1,5,5v12a5,5,0,0,1,-5,5h-44a5,5,0,0,1,-5,-5v-12a5,5,0,0,1,5,-5z" stroke-width="3"></path><g id="node_text5" fill="black"><text id="kity_text_57" text-rendering="inherit" font-size="12" dy=".8em" y="74.69999918614825" x="990.5000088177621">Name</text></g></g><g id="minder_node7" opacity="1"><g id="node_expander6" style="cursor: pointer;" display="none"><path id="kity_path_76" fill="white" stroke="gray" d="M980.5000086985528,134.4999994598329A6,6,0,1,1,968.5000086985528,134.4999994598329A6,6,0,1,1,980.5000086985528,134.4999994598329"></path><path id="kity_path_77" fill="none" stroke="gray"></path></g><path id="node_outline7" fill="none" stroke="none" d="M985.5000088177621,123.4999994598329h39a5,5,0,0,1,5,5v12a5,5,0,0,1,-5,5h-39a5,5,0,0,1,-5,-5v-12a5,5,0,0,1,5,-5z" stroke-width="3"></path><g id="node_text7" fill="black"><text id="kity_text_73" text-rendering="inherit" font-size="12" dy=".8em" y="126.69999957357845" x="990.5000088177621">Level</text></g></g><g id="minder_node4"><g id="node_expander3" style="cursor: pointer;"><path id="kity_path_52" fill="white" stroke="gray" d="M851.500007737428,108.49999926611781A6,6,0,1,1,839.500007737428,108.49999926611781A6,6,0,1,1,851.500007737428,108.49999926611781"></path><path id="kity_path_53" fill="none" stroke="gray" d="M841.000007737428,108.49999926611781L850.000007737428,108.49999926611781"></path></g><path id="node_outline4" fill="none" stroke="none" d="M856.5000078566372,97.49999926611781h79a5,5,0,0,1,5,5v12a5,5,0,0,1,-5,5h-79a5,5,0,0,1,-5,-5v-12a5,5,0,0,1,5,-5z" stroke-width="3"></path><g id="node_text4" fill="black"><text id="kity_text_49" text-rendering="inherit" font-size="12" dy=".8em" y="100.69999937986334" x="861.5000078566372">UpdateData</text></g></g><g id="minder_node11"><g id="node_expander10" style="cursor: pointer;" display="none"><path id="kity_path_109" fill="white" stroke="gray" d="M962.5000085644424,300.5000006966293A6,6,0,1,1,950.5000085644424,300.5000006966293A6,6,0,1,1,962.5000085644424,300.5000006966293"></path><path id="kity_path_110" fill="none" stroke="gray"></path></g><path id="node_outline11" fill="none" stroke="none" d="M967.5000086836517,289.5000006966293h37a5,5,0,0,1,5,5v12a5,5,0,0,1,-5,5h-37a5,5,0,0,1,-5,-5v-12a5,5,0,0,1,5,-5z" stroke-width="3"></path><g id="node_text11" fill="black"><text id="kity_text_106" text-rendering="inherit" font-size="12" dy=".8em" y="292.70000081037483" x="972.5000086836517">Start</text></g></g><g id="minder_node12"><g id="node_expander11" style="cursor: pointer;" display="none"><path id="kity_path_120" fill="white" stroke="gray" d="M962.5000085644424,352.5000010840595A6,6,0,1,1,950.5000085644424,352.5000010840595A6,6,0,1,1,962.5000085644424,352.5000010840595"></path><path id="kity_path_121" fill="none" stroke="gray"></path></g><path id="node_outline12" fill="none" stroke="none" d="M967.5000086836517,341.5000010840595h49a5,5,0,0,1,5,5v12a5,5,0,0,1,-5,5h-49a5,5,0,0,1,-5,-5v-12a5,5,0,0,1,5,-5z" stroke-width="3"></path><g id="node_text12" fill="black"><text id="kity_text_117" text-rendering="inherit" font-size="12" dy=".8em" y="344.700001197805" x="972.5000086836517">Sign in</text></g></g><g id="minder_node13"><g id="node_expander12" style="cursor: pointer;" display="none"><path id="kity_path_132" fill="white" stroke="gray" d="M962.5000085644424,404.50000147148967A6,6,0,1,1,950.5000085644424,404.50000147148967A6,6,0,1,1,962.5000085644424,404.50000147148967"></path><path id="kity_path_133" fill="none" stroke="gray"></path></g><path id="node_outline13" fill="none" stroke="none" d="M967.5000086836517,393.50000147148967h62a5,5,0,0,1,5,5v12a5,5,0,0,1,-5,5h-62a5,5,0,0,1,-5,-5v-12a5,5,0,0,1,5,-5z" stroke-width="3"></path><g id="node_text13" fill="black"><text id="kity_text_129" text-rendering="inherit" font-size="12" dy=".8em" y="396.7000015852352" x="972.5000086836517">Continue</text></g></g><g id="minder_node14"><g id="node_expander13" style="cursor: pointer;" display="none"><path id="kity_path_140" fill="white" stroke="gray" d="M962.5000085644424,456.50000185891986A6,6,0,1,1,950.5000085644424,456.50000185891986A6,6,0,1,1,962.5000085644424,456.50000185891986"></path><path id="kity_path_141" fill="none" stroke="gray"></path></g><path id="node_outline14" fill="none" stroke="none" d="M967.5000086836517,445.50000185891986h30a5,5,0,0,1,5,5v12a5,5,0,0,1,-5,5h-30a5,5,0,0,1,-5,-5v-12a5,5,0,0,1,5,-5z" stroke-width="3"></path><g id="node_text14" fill="black"><text id="kity_text_137" text-rendering="inherit" font-size="12" dy=".8em" y="448.7000019726654" x="972.5000086836517">Exit</text></g></g><g id="minder_node9"><g id="node_expander8" style="cursor: pointer;"><path id="kity_path_92" fill="white" stroke="gray" d="M805.5000073947012,378.5000012777746A6,6,0,1,1,793.5000073947012,378.5000012777746A6,6,0,1,1,805.5000073947012,378.5000012777746"></path><path id="kity_path_93" fill="none" stroke="gray" d="M795.0000073947012,378.5000012777746L804.0000073947012,378.5000012777746"></path></g><path id="node_outline9" fill="none" stroke="none" d="M810.5000075139105,367.5000012777746h107a5,5,0,0,1,5,5v12a5,5,0,0,1,-5,5h-107a5,5,0,0,1,-5,-5v-12a5,5,0,0,1,5,-5z" stroke-width="3"></path><g id="node_text9" fill="black"><text id="kity_text_89" text-rendering="inherit" font-size="12" dy=".8em" y="370.7000013915201" x="815.5000075139105">WelcomeActivity</text></g></g><g id="minder_node16"><g id="node_expander15" style="cursor: pointer;" display="none"><path id="kity_path_160" fill="white" stroke="gray" d="M941.5000084079802,508.50000224635005A6,6,0,1,1,929.5000084079802,508.50000224635005A6,6,0,1,1,941.5000084079802,508.50000224635005"></path><path id="kity_path_161" fill="none" stroke="gray"></path></g><path id="node_outline16" fill="none" stroke="none" d="M946.5000085271895,497.50000224635005h45a5,5,0,0,1,5,5v12a5,5,0,0,1,-5,5h-45a5,5,0,0,1,-5,-5v-12a5,5,0,0,1,5,-5z" stroke-width="3"></path><g id="node_text16" fill="black"><text id="kity_text_157" text-rendering="inherit" font-size="12" dy=".8em" y="500.7000023600956" x="951.5000085271895">Page1</text></g></g><g id="minder_node17"><g id="node_expander16" style="cursor: pointer;" display="none"><path id="kity_path_168" fill="white" stroke="gray" d="M941.5000084079802,560.5000026337802A6,6,0,1,1,929.5000084079802,560.5000026337802A6,6,0,1,1,941.5000084079802,560.5000026337802"></path><path id="kity_path_169" fill="none" stroke="gray"></path></g><path id="node_outline17" fill="none" stroke="none" d="M946.5000085271895,549.5000026337802h45a5,5,0,0,1,5,5v12a5,5,0,0,1,-5,5h-45a5,5,0,0,1,-5,-5v-12a5,5,0,0,1,5,-5z" stroke-width="3"></path><g id="node_text17" fill="black"><text id="kity_text_165" text-rendering="inherit" font-size="12" dy=".8em" y="552.7000027475258" x="951.5000085271895">Page2</text></g></g><g id="minder_node18"><g id="node_expander17" style="cursor: pointer;" display="none"><path id="kity_path_176" fill="white" stroke="gray" d="M941.5000084079802,612.5000030212104A6,6,0,1,1,929.5000084079802,612.5000030212104A6,6,0,1,1,941.5000084079802,612.5000030212104"></path><path id="kity_path_177" fill="none" stroke="gray"></path></g><path id="node_outline18" fill="none" stroke="none" d="M946.5000085271895,601.5000030212104h58a5,5,0,0,1,5,5v12a5,5,0,0,1,-5,5h-58a5,5,0,0,1,-5,-5v-12a5,5,0,0,1,5,-5z" stroke-width="3"></path><g id="node_text18" fill="black"><text id="kity_text_173" text-rendering="inherit" font-size="12" dy=".8em" y="604.700003134956" x="951.5000085271895">Page3-8</text></g></g><g id="minder_node10" opacity="1"><g id="node_expander9" style="cursor: pointer;"><path id="kity_path_101" fill="white" stroke="gray" d="M805.5000073947012,560.5000026337802A6,6,0,1,1,793.5000073947012,560.5000026337802A6,6,0,1,1,805.5000073947012,560.5000026337802"></path><path id="kity_path_102" fill="none" stroke="gray" d="M795.0000073947012,560.5000026337802L804.0000073947012,560.5000026337802"></path></g><path id="node_outline10" fill="none" stroke="none" d="M810.5000075139105,549.5000026337802h86a5,5,0,0,1,5,5v12a5,5,0,0,1,-5,5h-86a5,5,0,0,1,-5,-5v-12a5,5,0,0,1,5,-5z" stroke-width="3"></path><g id="node_text10" fill="black"><text id="kity_text_98" text-rendering="inherit" font-size="12" dy=".8em" y="552.7000027475258" x="815.5000075139105">GameActivity</text></g></g><g id="minder_node15" opacity="1"><g id="node_expander14" style="cursor: pointer;" display="none"><path id="kity_path_152" fill="white" stroke="gray" d="M805.5000073947012,976.5000057332218A6,6,0,1,1,793.5000073947012,976.5000057332218A6,6,0,1,1,805.5000073947012,976.5000057332218"></path><path id="kity_path_153" fill="none" stroke="gray"></path></g><path id="node_outline15" fill="none" stroke="none" d="M810.5000075139105,965.5000057332218h71a5,5,0,0,1,5,5v12a5,5,0,0,1,-5,5h-71a5,5,0,0,1,-5,-5v-12a5,5,0,0,1,5,-5z" stroke-width="3"></path><g id="node_text15" fill="black"><text id="kity_text_149" text-rendering="inherit" font-size="12" dy=".8em" y="968.7000058469673" x="815.5000075139105">Simulation</text></g></g><g id="minder_node19"><g id="node_expander18" style="cursor: pointer;"><path id="kity_path_204" fill="white" stroke="gray" d="M851.500007737428,212.5000000409782A6,6,0,1,1,839.500007737428,212.5000000409782A6,6,0,1,1,851.500007737428,212.5000000409782"></path><path id="kity_path_205" fill="none" stroke="gray" d="M841.000007737428,212.5000000409782L850.000007737428,212.5000000409782"></path></g><path id="node_outline19" fill="none" stroke="none" d="M856.5000078566372,201.5000000409782h96a5,5,0,0,1,5,5v12a5,5,0,0,1,-5,5h-96a5,5,0,0,1,-5,-5v-12a5,5,0,0,1,5,-5z" stroke-width="3"></path><g id="node_text19" fill="black"><text id="kity_text_201" text-rendering="inherit" font-size="12" dy=".8em" y="204.70000015472374" x="861.5000078566372">DownloadData</text></g></g><g id="minder_node20"><g id="node_expander19" style="cursor: pointer;" display="none"><path id="kity_path_212" fill="white" stroke="gray" d="M997.5000088252127,186.4999998472631A6,6,0,1,1,985.5000088252127,186.4999998472631A6,6,0,1,1,997.5000088252127,186.4999998472631"></path><path id="kity_path_213" fill="none" stroke="gray"></path></g><path id="node_outline20" fill="none" stroke="none" d="M1002.500008944422,175.4999998472631h44a5,5,0,0,1,5,5v12a5,5,0,0,1,-5,5h-44a5,5,0,0,1,-5,-5v-12a5,5,0,0,1,5,-5z" stroke-width="3"></path><g id="node_text20" fill="black"><text id="kity_text_209" text-rendering="inherit" font-size="12" dy=".8em" y="178.69999996100864" x="1007.500008944422">Name</text></g></g><g id="minder_node21"><g id="node_expander20" style="cursor: pointer;" display="none"><path id="kity_path_220" fill="white" stroke="gray" d="M997.5000088252127,238.5000002346933A6,6,0,1,1,985.5000088252127,238.5000002346933A6,6,0,1,1,997.5000088252127,238.5000002346933"></path><path id="kity_path_221" fill="none" stroke="gray"></path></g><path id="node_outline21" fill="none" stroke="none" d="M1002.500008944422,227.5000002346933h39a5,5,0,0,1,5,5v12a5,5,0,0,1,-5,5h-39a5,5,0,0,1,-5,-5v-12a5,5,0,0,1,5,-5z" stroke-width="3"></path><g id="node_text21" fill="black"><text id="kity_text_217" text-rendering="inherit" font-size="12" dy=".8em" y="230.70000034843883" x="1007.500008944422">Level</text></g></g><g id="minder_node23" opacity="1"><g id="node_expander22" style="cursor: pointer;"><path id="kity_path_236" fill="white" stroke="gray" d="M805.5000073947012,794.5000043772161A6,6,0,1,1,793.5000073947012,794.5000043772161A6,6,0,1,1,805.5000073947012,794.5000043772161"></path><path id="kity_path_237" fill="none" stroke="gray" d="M795.0000073947012,794.5000043772161L804.0000073947012,794.5000043772161"></path></g><path id="node_outline23" fill="none" stroke="none" d="M810.5000075139105,783.5000043772161h52a5,5,0,0,1,5,5v12a5,5,0,0,1,-5,5h-52a5,5,0,0,1,-5,-5v-12a5,5,0,0,1,5,-5z" stroke-width="3"></path><g id="node_text23" fill="black"><text id="kity_text_233" text-rendering="inherit" font-size="12" dy=".8em" y="786.7000044909616" x="815.5000075139105">Widget</text></g></g><g id="minder_node24"><g id="node_expander23" style="cursor: pointer;" display="none"><path id="kity_path_244" fill="white" stroke="gray" d="M907.5000081546605,664.5000034086406A6,6,0,1,1,895.5000081546605,664.5000034086406A6,6,0,1,1,907.5000081546605,664.5000034086406"></path><path id="kity_path_245" fill="none" stroke="gray"></path></g><path id="node_outline24" fill="none" stroke="none" d="M912.5000082738698,653.5000034086406h32a5,5,0,0,1,5,5v12a5,5,0,0,1,-5,5h-32a5,5,0,0,1,-5,-5v-12a5,5,0,0,1,5,-5z" stroke-width="3"></path><g id="node_text24" fill="black"><text id="kity_text_241" text-rendering="inherit" font-size="12" dy=".8em" y="656.7000035223862" x="917.5000082738698">Pen</text></g></g><g id="minder_node25"><g id="node_expander24" style="cursor: pointer;"><path id="kity_path_252" fill="white" stroke="gray" d="M907.5000081546605,742.5000039897859A6,6,0,1,1,895.5000081546605,742.5000039897859A6,6,0,1,1,907.5000081546605,742.5000039897859"></path><path id="kity_path_253" fill="none" stroke="gray" d="M897.0000081546605,742.5000039897859L906.0000081546605,742.5000039897859"></path></g><path id="node_outline25" fill="none" stroke="none" d="M912.5000082738698,731.5000039897859h60a5,5,0,0,1,5,5v12a5,5,0,0,1,-5,5h-60a5,5,0,0,1,-5,-5v-12a5,5,0,0,1,5,-5z" stroke-width="3"></path><g id="node_text25" fill="black"><text id="kity_text_249" text-rendering="inherit" font-size="12" dy=".8em" y="734.7000041035315" x="917.5000082738698">Darwline</text></g></g><g id="minder_node26"><g id="node_expander25" style="cursor: pointer;" display="none"><path id="kity_path_260" fill="white" stroke="gray" d="M1017.5000089742243,716.5000037960708A6,6,0,1,1,1005.5000089742243,716.5000037960708A6,6,0,1,1,1017.5000089742243,716.5000037960708"></path><path id="kity_path_261" fill="none" stroke="gray"></path></g><path id="node_outline26" fill="none" stroke="none" d="M1022.5000090934336,705.5000037960708h37a5,5,0,0,1,5,5v12a5,5,0,0,1,-5,5h-37a5,5,0,0,1,-5,-5v-12a5,5,0,0,1,5,-5z" stroke-width="3"></path><g id="node_text26" fill="black"><text id="kity_text_257" text-rendering="inherit" font-size="12" dy=".8em" y="708.7000039098164" x="1027.5000090934336">Stick</text></g></g><g id="minder_node27"><g id="node_expander26" style="cursor: pointer;" display="none"><path id="kity_path_268" fill="white" stroke="gray" d="M1017.5000089742243,768.500004183501A6,6,0,1,1,1005.5000089742243,768.500004183501A6,6,0,1,1,1017.5000089742243,768.500004183501"></path><path id="kity_path_269" fill="none" stroke="gray"></path></g><path id="node_outline27" fill="none" stroke="none" d="M1022.5000090934336,757.500004183501h53a5,5,0,0,1,5,5v12a5,5,0,0,1,-5,5h-53a5,5,0,0,1,-5,-5v-12a5,5,0,0,1,5,-5z" stroke-width="3"></path><g id="node_text27" fill="black"><text id="kity_text_265" text-rendering="inherit" font-size="12" dy=".8em" y="760.7000042972466" x="1027.5000090934336">Normal</text></g></g><g id="minder_node28"><g id="node_expander27" style="cursor: pointer;"><path id="kity_path_276" fill="white" stroke="gray" d="M907.5000081546605,846.5000047646463A6,6,0,1,1,895.5000081546605,846.5000047646463A6,6,0,1,1,907.5000081546605,846.5000047646463"></path><path id="kity_path_277" fill="none" stroke="gray" d="M897.0000081546605,846.5000047646463L906.0000081546605,846.5000047646463"></path></g><path id="node_outline28" fill="none" stroke="none" d="M912.5000082738698,835.5000047646463h70a5,5,0,0,1,5,5v12a5,5,0,0,1,-5,5h-70a5,5,0,0,1,-5,-5v-12a5,5,0,0,1,5,-5z" stroke-width="3"></path><g id="node_text28" fill="black"><text id="kity_text_273" text-rendering="inherit" font-size="12" dy=".8em" y="838.7000048783918" x="917.5000082738698">Drawcircle</text></g></g><g id="minder_node29"><g id="node_expander28" style="cursor: pointer;" display="none"><path id="kity_path_284" fill="white" stroke="gray" d="M1027.5000090487301,820.5000045709312A6,6,0,1,1,1015.5000090487301,820.5000045709312A6,6,0,1,1,1027.5000090487301,820.5000045709312"></path><path id="kity_path_285" fill="none" stroke="gray"></path></g><path id="node_outline29" fill="none" stroke="none" d="M1032.5000091679394,809.5000045709312h63a5,5,0,0,1,5,5v12a5,5,0,0,1,-5,5h-63a5,5,0,0,1,-5,-5v-12a5,5,0,0,1,5,-5z" stroke-width="3"></path><g id="node_text29" fill="black"><text id="kity_text_281" text-rendering="inherit" font-size="12" dy=".8em" y="812.7000046846767" x="1037.5000091679394">SadCircle</text></g></g><g id="minder_node30"><g id="node_expander29" style="cursor: pointer;" display="none"><path id="kity_path_292" fill="white" stroke="gray" d="M1027.5000090487301,872.5000049583614A6,6,0,1,1,1015.5000090487301,872.5000049583614A6,6,0,1,1,1027.5000090487301,872.5000049583614"></path><path id="kity_path_293" fill="none" stroke="gray"></path></g><path id="node_outline30" fill="none" stroke="none" d="M1032.5000091679394,861.5000049583614h73a5,5,0,0,1,5,5v12a5,5,0,0,1,-5,5h-73a5,5,0,0,1,-5,-5v-12a5,5,0,0,1,5,-5z" stroke-width="3"></path><g id="node_text30" fill="black"><text id="kity_text_289" text-rendering="inherit" font-size="12" dy=".8em" y="864.7000050721069" x="1037.5000091679394">SimleCircle</text></g></g><g id="minder_node31"><g id="node_expander30" style="cursor: pointer;"><path id="kity_path_300" fill="white" stroke="gray" d="M331.50000386312604,399.50000143423676A6,6,0,1,1,319.50000386312604,399.50000143423676A6,6,0,1,1,331.50000386312604,399.50000143423676"></path><path id="kity_path_301" fill="none" stroke="gray" d="M321.00000386312604,399.50000143423676L330.00000386312604,399.50000143423676"></path></g><path id="node_outline31" fill="rgb(238, 243, 246)" stroke="rgb(115, 161, 191)" d="M245.50000339373946,386.50000143423676h70a3,3,0,0,1,3,3v20a3,3,0,0,1,-3,3h-70a3,3,0,0,1,-3,-3v-20a3,3,0,0,1,3,-3z" stroke-width="1"></path><g id="node_text31" fill="black"><text id="kity_text_297" text-rendering="inherit" font-size="14" dy=".8em" y="390.40000146097606" x="262.50000339373946">Logic</text></g></g><g id="minder_node32"><g id="node_expander31" style="cursor: pointer;" display="none"><path id="kity_path_308" fill="white" stroke="gray" d="M214.5000029914081,345.0000010281801A6,6,0,1,1,202.5000029914081,345.0000010281801A6,6,0,1,1,214.5000029914081,345.0000010281801"></path><path id="kity_path_309" fill="none" stroke="gray"></path></g><path id="node_outline32" fill="none" stroke="none" d="M124.50000240281224,331.50000102445483h73a5,5,0,0,1,5,5v17a5,5,0,0,1,-5,5h-73a5,5,0,0,1,-5,-5v-17a5,5,0,0,1,5,-5z" stroke-width="3"></path><g id="node_text32" fill="black"><text id="kity_text_305" text-rendering="inherit" font-size="12" dy=".8em" y="336.7000011382004" x="129.50000240281224">Encode</text></g><g id="kity_g_337" style="cursor: pointer;"><path id="kity_path_338" fill="none" stroke="none" d="M179.00000275298953,336.00000102445483h12a2,2,0,0,1,2,2v13a2,2,0,0,1,-2,2h-12a2,2,0,0,1,-2,-2v-13a2,2,0,0,1,2,-2z"></path><path id="kity_path_339" fill="black" stroke="none" d="M188.00000277161598,347.00000097602606H182.00000277161598V346.00000097602606h6L188.00000277161598,347.00000097602606L188.00000277161598,347.00000097602606zM188.00000277161598,345.00000097602606H182.00000277161598V344.00000097602606h6V345.00000097602606zM188.00000277161598,343.00000097602606H182.00000277161598V342.00000097602606h6V343.00000097602606zM187.50000277161598,349.00000097602606H181.00000277161598V340.00000097602606h8v7.5M188.00000277161598,350.00000097602606l2,-2V339.00000097602606H180.00000277161598v11"></path></g></g><g id="minder_node33"><g id="node_expander32" style="cursor: pointer;" display="none"><path id="kity_path_316" fill="white" stroke="gray" d="M214.5000029914081,399.50000143423676A6,6,0,1,1,202.5000029914081,399.50000143423676A6,6,0,1,1,214.5000029914081,399.50000143423676"></path><path id="kity_path_317" fill="none" stroke="gray"></path></g><path id="node_outline33" fill="none" stroke="none" d="M143.50000254437327,388.50000143423676h54a5,5,0,0,1,5,5v12a5,5,0,0,1,-5,5h-54a5,5,0,0,1,-5,-5v-12a5,5,0,0,1,5,-5z" stroke-width="3"></path><g id="node_text33" fill="black"><text id="kity_text_313" text-rendering="inherit" font-size="12" dy=".8em" y="391.7000015479823" x="148.50000254437327">Decode</text></g></g><g id="minder_node34"><g id="node_expander33" style="cursor: pointer;"><path id="kity_path_324" fill="white" stroke="gray" d="M214.5000029914081,454.0000018402934A6,6,0,1,1,202.5000029914081,454.0000018402934A6,6,0,1,1,214.5000029914081,454.0000018402934"></path><path id="kity_path_325" fill="none" stroke="gray" d="M204.0000029914081,454.0000018402934L213.0000029914081,454.0000018402934"></path></g><path id="node_outline34" fill="none" stroke="none" d="M117.50000235065818,440.5000018365681h80a5,5,0,0,1,5,5v17a5,5,0,0,1,-5,5h-80a5,5,0,0,1,-5,-5v-17a5,5,0,0,1,5,-5z" stroke-width="3"></path><g id="node_text34" fill="black"><text id="kity_text_321" text-rendering="inherit" font-size="12" dy=".8em" y="445.70000195031366" x="122.50000235065818">com.example.lostincrowds.Network</text></g><g id="kity_g_334" style="cursor: pointer;"><path id="kity_path_335" fill="none" stroke="none" d="M179.00000275298953,445.0000018365681h12a2,2,0,0,1,2,2v13a2,2,0,0,1,-2,2h-12a2,2,0,0,1,-2,-2v-13a2,2,0,0,1,2,-2z"></path><path id="kity_path_336" fill="black" stroke="none" d="M188.00000277161598,456.00000178813934H182.00000277161598V455.00000178813934h6L188.00000277161598,456.00000178813934L188.00000277161598,456.00000178813934zM188.00000277161598,454.00000178813934H182.00000277161598V453.00000178813934h6V454.00000178813934zM188.00000277161598,452.00000178813934H182.00000277161598V451.00000178813934h6V452.00000178813934zM187.50000277161598,458.00000178813934H181.00000277161598V449.00000178813934h8v7.5M188.00000277161598,459.00000178813934l2,-2V448.00000178813934H180.00000277161598v11"></path></g></g><g id="minder_node35"><g id="node_expander34" style="cursor: pointer;" display="none"><path id="kity_path_332" fill="white" stroke="gray" d="M84.50000202283263,454.5000018440187A6,6,0,1,1,72.50000202283263,454.5000018440187A6,6,0,1,1,84.50000202283263,454.5000018440187"></path><path id="kity_path_333" fill="none" stroke="gray"></path></g><path id="node_outline35" fill="none" stroke="none" d="M25.500001665204763,443.5000018440187h42a5,5,0,0,1,5,5v12a5,5,0,0,1,-5,5h-42a5,5,0,0,1,-5,-5v-12a5,5,0,0,1,5,-5z" stroke-width="3"></path><g id="node_text35" fill="black"><text id="kity_text_329" text-rendering="inherit" font-size="12" dy=".8em" y="446.70000195776424" x="30.500001665204763">Node</text></g></g><g id="minder_node36"><g id="node_expander35" style="cursor: pointer;"><path id="kity_path_346" fill="white" stroke="gray" d="M907.5000081546605,924.5000053457916A6,6,0,1,1,895.5000081546605,924.5000053457916A6,6,0,1,1,907.5000081546605,924.5000053457916"></path><path id="kity_path_347" fill="none" stroke="gray" d="M897.0000081546605,924.5000053457916L906.0000081546605,924.5000053457916"></path></g><path id="node_outline36" fill="none" stroke="none" d="M912.5000082738698,913.5000053457916h64a5,5,0,0,1,5,5v12a5,5,0,0,1,-5,5h-64a5,5,0,0,1,-5,-5v-12a5,5,0,0,1,5,-5z" stroke-width="3"></path><g id="node_text36" fill="black"><text id="kity_text_343" text-rendering="inherit" font-size="12" dy=".8em" y="916.7000054595371" x="917.5000082738698">Encoding</text></g></g><g id="minder_node37"><g id="node_expander36" style="cursor: pointer;" display="none"><path id="kity_path_354" fill="white" stroke="gray" d="M1021.5000090040267,924.5000053457916A6,6,0,1,1,1009.5000090040267,924.5000053457916A6,6,0,1,1,1021.5000090040267,924.5000053457916"></path><path id="kity_path_355" fill="none" stroke="gray"></path></g><path id="node_outline37" fill="none" stroke="rgb(57, 80, 96)" d="M1026.500009123236,913.5000053457916h45a5,5,0,0,1,5,5v12a5,5,0,0,1,-5,5h-45a5,5,0,0,1,-5,-5v-12a5,5,0,0,1,5,-5z" stroke-width="3"></path><g id="node_text37" fill="black"><text id="kity_text_351" text-rendering="inherit" font-size="12" dy=".8em" y="916.7000054595371" x="1031.500009123236">Graph</text></g></g></g></g></svg>